<svg width="327" height="42" viewBox="0 0 327 42" fill="none" xmlns="http://www.w3.org/2000/svg">
<g opacity="0.9">
<rect width="327" height="42" rx="12" fill="#E6E6E6"/>
<path opacity="0.5" d="M13.7216 27V15.3636H17.6534C18.5663 15.3636 19.3125 15.5284 19.892 15.858C20.4754 16.1837 20.9072 16.625 21.1875 17.1818C21.4678 17.7386 21.608 18.3598 21.608 19.0455C21.608 19.7311 21.4678 20.3542 21.1875 20.9148C20.911 21.4754 20.483 21.9223 19.9034 22.2557C19.3239 22.5852 18.5814 22.75 17.6761 22.75H14.858V21.5H17.6307C18.2557 21.5 18.7576 21.392 19.1364 21.1761C19.5152 20.9602 19.7898 20.6686 19.9602 20.3011C20.1345 19.9299 20.2216 19.5114 20.2216 19.0455C20.2216 18.5795 20.1345 18.1629 19.9602 17.7955C19.7898 17.428 19.5133 17.1402 19.1307 16.9318C18.7481 16.7197 18.2405 16.6136 17.608 16.6136H15.1307V27H13.7216ZM23.696 27V18.2727H24.9915V19.5909H25.0824C25.2415 19.1591 25.5294 18.8087 25.946 18.5398C26.3627 18.2708 26.8324 18.1364 27.3551 18.1364C27.4536 18.1364 27.5767 18.1383 27.7244 18.142C27.8722 18.1458 27.9839 18.1515 28.0597 18.1591V19.5227C28.0142 19.5114 27.91 19.4943 27.7472 19.4716C27.5881 19.4451 27.4195 19.4318 27.2415 19.4318C26.8172 19.4318 26.4384 19.5208 26.1051 19.6989C25.7756 19.8731 25.5142 20.1155 25.321 20.4261C25.1316 20.733 25.0369 21.0833 25.0369 21.4773V27H23.696ZM33.0426 27.1818C32.2017 27.1818 31.4763 26.9962 30.8665 26.625C30.2604 26.25 29.7926 25.7273 29.4631 25.0568C29.1373 24.3826 28.9744 23.5985 28.9744 22.7045C28.9744 21.8106 29.1373 21.0227 29.4631 20.3409C29.7926 19.6553 30.2509 19.1212 30.8381 18.7386C31.429 18.3523 32.1184 18.1591 32.9062 18.1591C33.3608 18.1591 33.8097 18.2348 34.2528 18.3864C34.696 18.5379 35.0994 18.7841 35.4631 19.125C35.8267 19.4621 36.1165 19.9091 36.3324 20.4659C36.5483 21.0227 36.6562 21.7083 36.6562 22.5227V23.0909H29.929V21.9318H35.2926C35.2926 21.4394 35.1941 21 34.9972 20.6136C34.804 20.2273 34.5275 19.9223 34.1676 19.6989C33.8116 19.4754 33.3911 19.3636 32.9062 19.3636C32.3722 19.3636 31.91 19.4962 31.5199 19.7614C31.1335 20.0227 30.8362 20.3636 30.6278 20.7841C30.4195 21.2045 30.3153 21.6553 30.3153 22.1364V22.9091C30.3153 23.5682 30.429 24.1269 30.6562 24.5852C30.8873 25.0398 31.2074 25.3864 31.6165 25.625C32.0256 25.8598 32.5009 25.9773 33.0426 25.9773C33.3949 25.9773 33.7131 25.928 33.9972 25.8295C34.285 25.7273 34.5331 25.5758 34.7415 25.375C34.9498 25.1705 35.1108 24.9167 35.2244 24.6136L36.5199 24.9773C36.3835 25.4167 36.1544 25.803 35.8324 26.1364C35.5104 26.4659 35.1127 26.7235 34.6392 26.9091C34.1657 27.0909 33.6335 27.1818 33.0426 27.1818ZM42.2415 27.1818C41.4233 27.1818 40.7188 26.9886 40.1278 26.6023C39.5369 26.2159 39.0824 25.6837 38.7642 25.0057C38.446 24.3277 38.2869 23.553 38.2869 22.6818C38.2869 21.7955 38.4498 21.0133 38.7756 20.3352C39.1051 19.6534 39.5634 19.1212 40.1506 18.7386C40.7415 18.3523 41.4309 18.1591 42.2188 18.1591C42.8324 18.1591 43.3854 18.2727 43.8778 18.5C44.3703 18.7273 44.7737 19.0455 45.0881 19.4545C45.4025 19.8636 45.5975 20.3409 45.6733 20.8864H44.3324C44.2301 20.4886 44.0028 20.1364 43.6506 19.8295C43.3021 19.5189 42.8324 19.3636 42.2415 19.3636C41.7188 19.3636 41.2604 19.5 40.8665 19.7727C40.4763 20.0417 40.1714 20.4223 39.9517 20.9148C39.7358 21.4034 39.6278 21.9773 39.6278 22.6364C39.6278 23.3106 39.7339 23.8977 39.946 24.3977C40.1619 24.8977 40.465 25.286 40.8551 25.5625C41.2491 25.839 41.7112 25.9773 42.2415 25.9773C42.59 25.9773 42.9062 25.9167 43.1903 25.7955C43.4744 25.6742 43.715 25.5 43.9119 25.2727C44.1089 25.0455 44.2491 24.7727 44.3324 24.4545H45.6733C45.5975 24.9697 45.41 25.4337 45.1108 25.8466C44.8153 26.2557 44.4233 26.5814 43.9347 26.8239C43.4498 27.0625 42.8854 27.1818 42.2415 27.1818ZM41.6051 26.9545H42.7188L42.6278 27.4091C42.9233 27.4545 43.1941 27.5777 43.4403 27.7784C43.6866 27.983 43.8097 28.3068 43.8097 28.75C43.8097 29.2386 43.607 29.6364 43.2017 29.9432C42.8002 30.2538 42.2074 30.4091 41.4233 30.4091L41.3778 29.5227C41.7301 29.5227 42.0218 29.4659 42.2528 29.3523C42.4877 29.2424 42.6051 29.0568 42.6051 28.7955C42.6051 28.5341 42.5085 28.3561 42.3153 28.2614C42.1222 28.1667 41.8097 28.1023 41.3778 28.0682L41.6051 26.9545ZM51.179 27.1818C50.3911 27.1818 49.6998 26.9943 49.1051 26.6193C48.5142 26.2443 48.0521 25.7197 47.7188 25.0455C47.3892 24.3712 47.2244 23.5833 47.2244 22.6818C47.2244 21.7727 47.3892 20.9792 47.7188 20.3011C48.0521 19.6231 48.5142 19.0966 49.1051 18.7216C49.6998 18.3466 50.3911 18.1591 51.179 18.1591C51.9669 18.1591 52.6563 18.3466 53.2472 18.7216C53.8419 19.0966 54.304 19.6231 54.6335 20.3011C54.9669 20.9792 55.1335 21.7727 55.1335 22.6818C55.1335 23.5833 54.9669 24.3712 54.6335 25.0455C54.304 25.7197 53.8419 26.2443 53.2472 26.6193C52.6563 26.9943 51.9669 27.1818 51.179 27.1818ZM51.179 25.9773C51.7775 25.9773 52.2699 25.8239 52.6562 25.517C53.0426 25.2102 53.3286 24.8068 53.5142 24.3068C53.6998 23.8068 53.7926 23.2652 53.7926 22.6818C53.7926 22.0985 53.6998 21.5549 53.5142 21.0511C53.3286 20.5473 53.0426 20.1402 52.6562 19.8295C52.2699 19.5189 51.7775 19.3636 51.179 19.3636C50.5805 19.3636 50.0881 19.5189 49.7017 19.8295C49.3153 20.1402 49.0294 20.5473 48.8438 21.0511C48.6581 21.5549 48.5653 22.0985 48.5653 22.6818C48.5653 23.2652 48.6581 23.8068 48.8438 24.3068C49.0294 24.8068 49.3153 25.2102 49.7017 25.517C50.0881 25.8239 50.5805 25.9773 51.179 25.9773ZM64.9759 27.1818C64.2486 27.1818 63.6065 26.9981 63.0497 26.6307C62.4929 26.2595 62.0573 25.7367 61.7429 25.0625C61.4285 24.3845 61.2713 23.5833 61.2713 22.6591C61.2713 21.7424 61.4285 20.947 61.7429 20.2727C62.0573 19.5985 62.4948 19.0777 63.0554 18.7102C63.616 18.3428 64.2637 18.1591 64.9986 18.1591C65.5668 18.1591 66.0156 18.2538 66.3452 18.4432C66.6785 18.6288 66.9323 18.8409 67.1065 19.0795C67.2846 19.3144 67.4228 19.5076 67.5213 19.6591H67.6349V15.3636H68.9759V27H67.6804V25.6591H67.5213C67.4228 25.8182 67.2827 26.0189 67.1009 26.2614C66.919 26.5 66.6596 26.714 66.3224 26.9034C65.9853 27.089 65.5365 27.1818 64.9759 27.1818ZM65.1577 25.9773C65.6955 25.9773 66.1501 25.8371 66.5213 25.5568C66.8925 25.2727 67.1747 24.8807 67.3679 24.3807C67.5611 23.8769 67.6577 23.2955 67.6577 22.6364C67.6577 21.9848 67.563 21.4148 67.3736 20.9261C67.1842 20.4337 66.9039 20.0511 66.5327 19.7784C66.1615 19.5019 65.7031 19.3636 65.1577 19.3636C64.5895 19.3636 64.116 19.5095 63.7372 19.8011C63.3622 20.089 63.08 20.4811 62.8906 20.9773C62.705 21.4697 62.6122 22.0227 62.6122 22.6364C62.6122 23.2576 62.7069 23.822 62.8963 24.3295C63.0895 24.8333 63.3736 25.2348 63.7486 25.5341C64.1274 25.8295 64.5971 25.9773 65.1577 25.9773ZM74.1861 27.2045C73.633 27.2045 73.1312 27.1004 72.6804 26.892C72.2296 26.6799 71.8717 26.375 71.6065 25.9773C71.3414 25.5758 71.2088 25.0909 71.2088 24.5227C71.2088 24.0227 71.3073 23.6174 71.5043 23.3068C71.7012 22.9924 71.9645 22.7462 72.294 22.5682C72.6236 22.3902 72.9872 22.2576 73.3849 22.1705C73.7865 22.0795 74.1899 22.0076 74.5952 21.9545C75.1255 21.8864 75.5554 21.8352 75.8849 21.8011C76.2183 21.7633 76.4607 21.7008 76.6122 21.6136C76.7675 21.5265 76.8452 21.375 76.8452 21.1591V21.1136C76.8452 20.553 76.6918 20.1174 76.3849 19.8068C76.0819 19.4962 75.6217 19.3409 75.0043 19.3409C74.3641 19.3409 73.8622 19.4811 73.4986 19.7614C73.1349 20.0417 72.8793 20.3409 72.7315 20.6591L71.4588 20.2045C71.6861 19.6742 71.9891 19.2614 72.3679 18.9659C72.7505 18.6667 73.1671 18.4583 73.6179 18.3409C74.0724 18.2197 74.5194 18.1591 74.9588 18.1591C75.2391 18.1591 75.5611 18.1932 75.9247 18.2614C76.2921 18.3258 76.6463 18.4602 76.9872 18.6648C77.3319 18.8693 77.6179 19.178 77.8452 19.5909C78.0724 20.0038 78.1861 20.5568 78.1861 21.25V27H76.8452V25.8182H76.777C76.6861 26.0076 76.5346 26.2102 76.3224 26.4261C76.1103 26.642 75.8281 26.8258 75.4759 26.9773C75.1236 27.1288 74.6937 27.2045 74.1861 27.2045ZM74.3906 26C74.9209 26 75.3679 25.8958 75.7315 25.6875C76.099 25.4792 76.3755 25.2102 76.5611 24.8807C76.7505 24.5511 76.8452 24.2045 76.8452 23.8409V22.6136C76.7884 22.6818 76.6634 22.7443 76.4702 22.8011C76.2808 22.8542 76.0611 22.9015 75.8111 22.9432C75.5649 22.9811 75.3243 23.0152 75.0895 23.0455C74.8584 23.072 74.6709 23.0947 74.527 23.1136C74.1785 23.1591 73.8527 23.233 73.5497 23.3352C73.2505 23.4337 73.008 23.5833 72.8224 23.7841C72.6406 23.9811 72.5497 24.25 72.5497 24.5909C72.5497 25.0568 72.7221 25.4091 73.0668 25.6477C73.4152 25.8826 73.8565 26 74.3906 26ZM93.2699 19C93.1449 18.6174 92.9801 18.2746 92.7756 17.9716C92.5748 17.6648 92.3343 17.4034 92.054 17.1875C91.7775 16.9716 91.4631 16.8068 91.1108 16.6932C90.7585 16.5795 90.3722 16.5227 89.9517 16.5227C89.2623 16.5227 88.6354 16.7008 88.071 17.0568C87.5066 17.4129 87.0578 17.9375 86.7244 18.6307C86.3911 19.3239 86.2244 20.1742 86.2244 21.1818C86.2244 22.1894 86.393 23.0398 86.7301 23.733C87.0672 24.4261 87.5237 24.9508 88.0994 25.3068C88.6752 25.6629 89.3229 25.8409 90.0426 25.8409C90.7093 25.8409 91.2964 25.6989 91.804 25.4148C92.3153 25.1269 92.7131 24.7216 92.9972 24.1989C93.285 23.6723 93.429 23.053 93.429 22.3409L93.8608 22.4318H90.3608V21.1818H94.7926V22.4318C94.7926 23.3902 94.5881 24.2235 94.179 24.9318C93.7737 25.6402 93.2131 26.1894 92.4972 26.5795C91.785 26.9659 90.9669 27.1591 90.0426 27.1591C89.0123 27.1591 88.107 26.9167 87.3267 26.4318C86.5502 25.947 85.9441 25.2576 85.5085 24.3636C85.0767 23.4697 84.8608 22.4091 84.8608 21.1818C84.8608 20.2614 84.9839 19.4337 85.2301 18.6989C85.4801 17.9602 85.8324 17.3314 86.2869 16.8125C86.7415 16.2936 87.2794 15.8958 87.9006 15.6193C88.5218 15.3428 89.2055 15.2045 89.9517 15.2045C90.5653 15.2045 91.1373 15.2973 91.6676 15.483C92.2017 15.6648 92.6771 15.9242 93.0938 16.2614C93.5142 16.5947 93.8646 16.9943 94.1449 17.4602C94.4252 17.9223 94.6184 18.4356 94.7244 19H93.2699ZM99.5923 27.2045C99.0393 27.2045 98.5374 27.1004 98.0866 26.892C97.6359 26.6799 97.2779 26.375 97.0128 25.9773C96.7476 25.5758 96.6151 25.0909 96.6151 24.5227C96.6151 24.0227 96.7135 23.6174 96.9105 23.3068C97.1075 22.9924 97.3707 22.7462 97.7003 22.5682C98.0298 22.3902 98.3935 22.2576 98.7912 22.1705C99.1927 22.0795 99.5961 22.0076 100.001 21.9545C100.532 21.8864 100.962 21.8352 101.291 21.8011C101.625 21.7633 101.867 21.7008 102.018 21.6136C102.174 21.5265 102.251 21.375 102.251 21.1591V21.1136C102.251 20.553 102.098 20.1174 101.791 19.8068C101.488 19.4962 101.028 19.3409 100.411 19.3409C99.7704 19.3409 99.2685 19.4811 98.9048 19.7614C98.5412 20.0417 98.2855 20.3409 98.1378 20.6591L96.8651 20.2045C97.0923 19.6742 97.3954 19.2614 97.7741 18.9659C98.1567 18.6667 98.5734 18.4583 99.0241 18.3409C99.4787 18.2197 99.9257 18.1591 100.365 18.1591C100.645 18.1591 100.967 18.1932 101.331 18.2614C101.698 18.3258 102.053 18.4602 102.393 18.6648C102.738 18.8693 103.024 19.178 103.251 19.5909C103.479 20.0038 103.592 20.5568 103.592 21.25V27H102.251V25.8182H102.183C102.092 26.0076 101.941 26.2102 101.729 26.4261C101.517 26.642 101.234 26.8258 100.882 26.9773C100.53 27.1288 100.1 27.2045 99.5923 27.2045ZM99.7969 26C100.327 26 100.774 25.8958 101.138 25.6875C101.505 25.4792 101.782 25.2102 101.967 24.8807C102.157 24.5511 102.251 24.2045 102.251 23.8409V22.6136C102.195 22.6818 102.07 22.7443 101.876 22.8011C101.687 22.8542 101.467 22.9015 101.217 22.9432C100.971 22.9811 100.731 23.0152 100.496 23.0455C100.265 23.072 100.077 23.0947 99.9332 23.1136C99.5848 23.1591 99.259 23.233 98.956 23.3352C98.6567 23.4337 98.4143 23.5833 98.2287 23.7841C98.0469 23.9811 97.956 24.25 97.956 24.5909C97.956 25.0568 98.1283 25.4091 98.473 25.6477C98.8215 25.8826 99.2628 26 99.7969 26ZM112.222 20.2273L111.017 20.5682C110.941 20.3674 110.83 20.1723 110.682 19.983C110.538 19.7898 110.341 19.6307 110.091 19.5057C109.841 19.3807 109.521 19.3182 109.131 19.3182C108.597 19.3182 108.152 19.4413 107.795 19.6875C107.443 19.9299 107.267 20.2386 107.267 20.6136C107.267 20.947 107.388 21.2102 107.631 21.4034C107.873 21.5966 108.252 21.7576 108.767 21.8864L110.062 22.2045C110.843 22.3939 111.424 22.6837 111.807 23.0739C112.189 23.4602 112.381 23.9583 112.381 24.5682C112.381 25.0682 112.237 25.5152 111.949 25.9091C111.665 26.303 111.267 26.6136 110.756 26.8409C110.244 27.0682 109.65 27.1818 108.972 27.1818C108.081 27.1818 107.345 26.9886 106.761 26.6023C106.178 26.2159 105.809 25.6515 105.653 24.9091L106.926 24.5909C107.047 25.0606 107.277 25.4129 107.614 25.6477C107.955 25.8826 108.4 26 108.949 26C109.574 26 110.07 25.8674 110.438 25.6023C110.809 25.3333 110.994 25.0114 110.994 24.6364C110.994 24.3333 110.888 24.0795 110.676 23.875C110.464 23.6667 110.138 23.5114 109.699 23.4091L108.244 23.0682C107.445 22.8788 106.858 22.5852 106.483 22.1875C106.112 21.786 105.926 21.2841 105.926 20.6818C105.926 20.1894 106.064 19.7538 106.341 19.375C106.621 18.9962 107.002 18.6989 107.483 18.483C107.968 18.267 108.517 18.1591 109.131 18.1591C109.994 18.1591 110.672 18.3485 111.165 18.7273C111.661 19.1061 112.013 19.6061 112.222 20.2273ZM117.945 27.1818C117.157 27.1818 116.465 26.9943 115.871 26.6193C115.28 26.2443 114.818 25.7197 114.484 25.0455C114.155 24.3712 113.99 23.5833 113.99 22.6818C113.99 21.7727 114.155 20.9792 114.484 20.3011C114.818 19.6231 115.28 19.0966 115.871 18.7216C116.465 18.3466 117.157 18.1591 117.945 18.1591C118.732 18.1591 119.422 18.3466 120.013 18.7216C120.607 19.0966 121.07 19.6231 121.399 20.3011C121.732 20.9792 121.899 21.7727 121.899 22.6818C121.899 23.5833 121.732 24.3712 121.399 25.0455C121.07 25.7197 120.607 26.2443 120.013 26.6193C119.422 26.9943 118.732 27.1818 117.945 27.1818ZM117.945 25.9773C118.543 25.9773 119.036 25.8239 119.422 25.517C119.808 25.2102 120.094 24.8068 120.28 24.3068C120.465 23.8068 120.558 23.2652 120.558 22.6818C120.558 22.0985 120.465 21.5549 120.28 21.0511C120.094 20.5473 119.808 20.1402 119.422 19.8295C119.036 19.5189 118.543 19.3636 117.945 19.3636C117.346 19.3636 116.854 19.5189 116.467 19.8295C116.081 20.1402 115.795 20.5473 115.609 21.0511C115.424 21.5549 115.331 22.0985 115.331 22.6818C115.331 23.2652 115.424 23.8068 115.609 24.3068C115.795 24.8068 116.081 25.2102 116.467 25.517C116.854 25.8239 117.346 25.9773 117.945 25.9773ZM125.287 15.3636V27H123.946V15.3636H125.287ZM127.743 27V18.2727H129.084V27H127.743ZM128.425 16.8182C128.163 16.8182 127.938 16.7292 127.749 16.5511C127.563 16.3731 127.47 16.1591 127.47 15.9091C127.47 15.6591 127.563 15.4451 127.749 15.267C127.938 15.089 128.163 15 128.425 15C128.686 15 128.91 15.089 129.095 15.267C129.285 15.4451 129.379 15.6591 129.379 15.9091C129.379 16.1591 129.285 16.3731 129.095 16.5511C128.91 16.7292 128.686 16.8182 128.425 16.8182ZM132.881 21.75V27H131.54V18.2727H132.835V19.6364H132.949C133.153 19.1932 133.464 18.8371 133.881 18.5682C134.297 18.2955 134.835 18.1591 135.494 18.1591C136.085 18.1591 136.602 18.2803 137.045 18.5227C137.489 18.7614 137.833 19.125 138.08 19.6136C138.326 20.0985 138.449 20.7121 138.449 21.4545V27H137.108V21.5455C137.108 20.8598 136.93 20.3258 136.574 19.9432C136.218 19.5568 135.729 19.3636 135.108 19.3636C134.68 19.3636 134.297 19.4564 133.96 19.642C133.627 19.8277 133.364 20.0985 133.17 20.4545C132.977 20.8106 132.881 21.2424 132.881 21.75ZM143.467 27.2045C142.914 27.2045 142.412 27.1004 141.962 26.892C141.511 26.6799 141.153 26.375 140.888 25.9773C140.623 25.5758 140.49 25.0909 140.49 24.5227C140.49 24.0227 140.589 23.6174 140.786 23.3068C140.982 22.9924 141.246 22.7462 141.575 22.5682C141.905 22.3902 142.268 22.2576 142.666 22.1705C143.068 22.0795 143.471 22.0076 143.876 21.9545C144.407 21.8864 144.837 21.8352 145.166 21.8011C145.5 21.7633 145.742 21.7008 145.893 21.6136C146.049 21.5265 146.126 21.375 146.126 21.1591V21.1136C146.126 20.553 145.973 20.1174 145.666 19.8068C145.363 19.4962 144.903 19.3409 144.286 19.3409C143.645 19.3409 143.143 19.4811 142.78 19.7614C142.416 20.0417 142.161 20.3409 142.013 20.6591L140.74 20.2045C140.967 19.6742 141.27 19.2614 141.649 18.9659C142.032 18.6667 142.448 18.4583 142.899 18.3409C143.354 18.2197 143.801 18.1591 144.24 18.1591C144.52 18.1591 144.842 18.1932 145.206 18.2614C145.573 18.3258 145.928 18.4602 146.268 18.6648C146.613 18.8693 146.899 19.178 147.126 19.5909C147.354 20.0038 147.467 20.5568 147.467 21.25V27H146.126V25.8182H146.058C145.967 26.0076 145.816 26.2102 145.604 26.4261C145.392 26.642 145.109 26.8258 144.757 26.9773C144.405 27.1288 143.975 27.2045 143.467 27.2045ZM143.672 26C144.202 26 144.649 25.8958 145.013 25.6875C145.38 25.4792 145.657 25.2102 145.842 24.8807C146.032 24.5511 146.126 24.2045 146.126 23.8409V22.6136C146.07 22.6818 145.945 22.7443 145.751 22.8011C145.562 22.8542 145.342 22.9015 145.092 22.9432C144.846 22.9811 144.606 23.0152 144.371 23.0455C144.14 23.072 143.952 23.0947 143.808 23.1136C143.46 23.1591 143.134 23.233 142.831 23.3352C142.532 23.4337 142.289 23.5833 142.104 23.7841C141.922 23.9811 141.831 24.25 141.831 24.5909C141.831 25.0568 142.003 25.4091 142.348 25.6477C142.696 25.8826 143.138 26 143.672 26Z" fill="#1A1A1A"/>
</g>
</svg>
