<svg width="335" height="50" viewBox="0 0 335 50" fill="none" xmlns="http://www.w3.org/2000/svg">
<g opacity="0.9" filter="url(#filter0_d_2_119)">
<rect x="4" width="327" height="42" rx="12" fill="#E6E6E6" shape-rendering="crispEdges"/>
<path opacity="0.5" d="M17.6278 27V15.3636H21.5597C22.4725 15.3636 23.2188 15.5284 23.7983 15.858C24.3816 16.1837 24.8134 16.625 25.0938 17.1818C25.3741 17.7386 25.5142 18.3598 25.5142 19.0455C25.5142 19.7311 25.3741 20.3542 25.0938 20.9148C24.8172 21.4754 24.3892 21.9223 23.8097 22.2557C23.2301 22.5852 22.4877 22.75 21.5824 22.75H18.7642V21.5H21.5369C22.1619 21.5 22.6638 21.392 23.0426 21.1761C23.4214 20.9602 23.696 20.6686 23.8665 20.3011C24.0407 19.9299 24.1278 19.5114 24.1278 19.0455C24.1278 18.5795 24.0407 18.1629 23.8665 17.7955C23.696 17.428 23.4195 17.1402 23.0369 16.9318C22.6544 16.7197 22.1468 16.6136 21.5142 16.6136H19.0369V27H17.6278ZM27.6023 27V18.2727H28.8977V19.5909H28.9886C29.1477 19.1591 29.4356 18.8087 29.8523 18.5398C30.2689 18.2708 30.7386 18.1364 31.2614 18.1364C31.3598 18.1364 31.483 18.1383 31.6307 18.142C31.7784 18.1458 31.8902 18.1515 31.9659 18.1591V19.5227C31.9205 19.5114 31.8163 19.4943 31.6534 19.4716C31.4943 19.4451 31.3258 19.4318 31.1477 19.4318C30.7235 19.4318 30.3447 19.5208 30.0114 19.6989C29.6818 19.8731 29.4205 20.1155 29.2273 20.4261C29.0379 20.733 28.9432 21.0833 28.9432 21.4773V27H27.6023ZM36.9489 27.1818C36.108 27.1818 35.3826 26.9962 34.7727 26.625C34.1667 26.25 33.6989 25.7273 33.3693 25.0568C33.0436 24.3826 32.8807 23.5985 32.8807 22.7045C32.8807 21.8106 33.0436 21.0227 33.3693 20.3409C33.6989 19.6553 34.1572 19.1212 34.7443 18.7386C35.3352 18.3523 36.0246 18.1591 36.8125 18.1591C37.267 18.1591 37.7159 18.2348 38.1591 18.3864C38.6023 18.5379 39.0057 18.7841 39.3693 19.125C39.733 19.4621 40.0227 19.9091 40.2386 20.4659C40.4545 21.0227 40.5625 21.7083 40.5625 22.5227V23.0909H33.8352V21.9318H39.1989C39.1989 21.4394 39.1004 21 38.9034 20.6136C38.7102 20.2273 38.4337 19.9223 38.0739 19.6989C37.7178 19.4754 37.2973 19.3636 36.8125 19.3636C36.2784 19.3636 35.8163 19.4962 35.4261 19.7614C35.0398 20.0227 34.7424 20.3636 34.5341 20.7841C34.3258 21.2045 34.2216 21.6553 34.2216 22.1364V22.9091C34.2216 23.5682 34.3352 24.1269 34.5625 24.5852C34.7936 25.0398 35.1136 25.3864 35.5227 25.625C35.9318 25.8598 36.4072 25.9773 36.9489 25.9773C37.3011 25.9773 37.6193 25.928 37.9034 25.8295C38.1913 25.7273 38.4394 25.5758 38.6477 25.375C38.8561 25.1705 39.017 24.9167 39.1307 24.6136L40.4261 24.9773C40.2898 25.4167 40.0606 25.803 39.7386 26.1364C39.4167 26.4659 39.0189 26.7235 38.5455 26.9091C38.072 27.0909 37.5398 27.1818 36.9489 27.1818ZM46.1477 27.1818C45.3295 27.1818 44.625 26.9886 44.0341 26.6023C43.4432 26.2159 42.9886 25.6837 42.6705 25.0057C42.3523 24.3277 42.1932 23.553 42.1932 22.6818C42.1932 21.7955 42.3561 21.0133 42.6818 20.3352C43.0114 19.6534 43.4697 19.1212 44.0568 18.7386C44.6477 18.3523 45.3371 18.1591 46.125 18.1591C46.7386 18.1591 47.2917 18.2727 47.7841 18.5C48.2765 18.7273 48.6799 19.0455 48.9943 19.4545C49.3087 19.8636 49.5038 20.3409 49.5795 20.8864H48.2386C48.1364 20.4886 47.9091 20.1364 47.5568 19.8295C47.2083 19.5189 46.7386 19.3636 46.1477 19.3636C45.625 19.3636 45.1667 19.5 44.7727 19.7727C44.3826 20.0417 44.0777 20.4223 43.858 20.9148C43.642 21.4034 43.5341 21.9773 43.5341 22.6364C43.5341 23.3106 43.6402 23.8977 43.8523 24.3977C44.0682 24.8977 44.3712 25.286 44.7614 25.5625C45.1553 25.839 45.6174 25.9773 46.1477 25.9773C46.4962 25.9773 46.8125 25.9167 47.0966 25.7955C47.3807 25.6742 47.6212 25.5 47.8182 25.2727C48.0152 25.0455 48.1553 24.7727 48.2386 24.4545H49.5795C49.5038 24.9697 49.3163 25.4337 49.017 25.8466C48.7216 26.2557 48.3295 26.5814 47.8409 26.8239C47.3561 27.0625 46.7917 27.1818 46.1477 27.1818ZM45.5114 26.9545H46.625L46.5341 27.4091C46.8295 27.4545 47.1004 27.5777 47.3466 27.7784C47.5928 27.983 47.7159 28.3068 47.7159 28.75C47.7159 29.2386 47.5133 29.6364 47.108 29.9432C46.7064 30.2538 46.1136 30.4091 45.3295 30.4091L45.2841 29.5227C45.6364 29.5227 45.928 29.4659 46.1591 29.3523C46.3939 29.2424 46.5114 29.0568 46.5114 28.7955C46.5114 28.5341 46.4148 28.3561 46.2216 28.2614C46.0284 28.1667 45.7159 28.1023 45.2841 28.0682L45.5114 26.9545ZM55.0852 27.1818C54.2973 27.1818 53.6061 26.9943 53.0114 26.6193C52.4205 26.2443 51.9583 25.7197 51.625 25.0455C51.2955 24.3712 51.1307 23.5833 51.1307 22.6818C51.1307 21.7727 51.2955 20.9792 51.625 20.3011C51.9583 19.6231 52.4205 19.0966 53.0114 18.7216C53.6061 18.3466 54.2973 18.1591 55.0852 18.1591C55.8731 18.1591 56.5625 18.3466 57.1534 18.7216C57.7481 19.0966 58.2102 19.6231 58.5398 20.3011C58.8731 20.9792 59.0398 21.7727 59.0398 22.6818C59.0398 23.5833 58.8731 24.3712 58.5398 25.0455C58.2102 25.7197 57.7481 26.2443 57.1534 26.6193C56.5625 26.9943 55.8731 27.1818 55.0852 27.1818ZM55.0852 25.9773C55.6837 25.9773 56.1761 25.8239 56.5625 25.517C56.9489 25.2102 57.2348 24.8068 57.4205 24.3068C57.6061 23.8068 57.6989 23.2652 57.6989 22.6818C57.6989 22.0985 57.6061 21.5549 57.4205 21.0511C57.2348 20.5473 56.9489 20.1402 56.5625 19.8295C56.1761 19.5189 55.6837 19.3636 55.0852 19.3636C54.4867 19.3636 53.9943 19.5189 53.608 19.8295C53.2216 20.1402 52.9356 20.5473 52.75 21.0511C52.5644 21.5549 52.4716 22.0985 52.4716 22.6818C52.4716 23.2652 52.5644 23.8068 52.75 24.3068C52.9356 24.8068 53.2216 25.2102 53.608 25.517C53.9943 25.8239 54.4867 25.9773 55.0852 25.9773ZM68.8821 27.1818C68.1548 27.1818 67.5128 26.9981 66.956 26.6307C66.3991 26.2595 65.9635 25.7367 65.6491 25.0625C65.3348 24.3845 65.1776 23.5833 65.1776 22.6591C65.1776 21.7424 65.3348 20.947 65.6491 20.2727C65.9635 19.5985 66.401 19.0777 66.9616 18.7102C67.5223 18.3428 68.17 18.1591 68.9048 18.1591C69.473 18.1591 69.9219 18.2538 70.2514 18.4432C70.5848 18.6288 70.8385 18.8409 71.0128 19.0795C71.1908 19.3144 71.3291 19.5076 71.4276 19.6591H71.5412V15.3636H72.8821V27H71.5866V25.6591H71.4276C71.3291 25.8182 71.1889 26.0189 71.0071 26.2614C70.8253 26.5 70.5658 26.714 70.2287 26.9034C69.8916 27.089 69.4427 27.1818 68.8821 27.1818ZM69.0639 25.9773C69.6018 25.9773 70.0563 25.8371 70.4276 25.5568C70.7988 25.2727 71.081 24.8807 71.2741 24.3807C71.4673 23.8769 71.5639 23.2955 71.5639 22.6364C71.5639 21.9848 71.4692 21.4148 71.2798 20.9261C71.0904 20.4337 70.8101 20.0511 70.4389 19.7784C70.0677 19.5019 69.6094 19.3636 69.0639 19.3636C68.4957 19.3636 68.0223 19.5095 67.6435 19.8011C67.2685 20.089 66.9863 20.4811 66.7969 20.9773C66.6113 21.4697 66.5185 22.0227 66.5185 22.6364C66.5185 23.2576 66.6132 23.822 66.8026 24.3295C66.9957 24.8333 67.2798 25.2348 67.6548 25.5341C68.0336 25.8295 68.5033 25.9773 69.0639 25.9773ZM79.0696 27.1818C78.2817 27.1818 77.5904 26.9943 76.9957 26.6193C76.4048 26.2443 75.9427 25.7197 75.6094 25.0455C75.2798 24.3712 75.1151 23.5833 75.1151 22.6818C75.1151 21.7727 75.2798 20.9792 75.6094 20.3011C75.9427 19.6231 76.4048 19.0966 76.9957 18.7216C77.5904 18.3466 78.2817 18.1591 79.0696 18.1591C79.8575 18.1591 80.5469 18.3466 81.1378 18.7216C81.7325 19.0966 82.1946 19.6231 82.5241 20.3011C82.8575 20.9792 83.0241 21.7727 83.0241 22.6818C83.0241 23.5833 82.8575 24.3712 82.5241 25.0455C82.1946 25.7197 81.7325 26.2443 81.1378 26.6193C80.5469 26.9943 79.8575 27.1818 79.0696 27.1818ZM79.0696 25.9773C79.6681 25.9773 80.1605 25.8239 80.5469 25.517C80.9332 25.2102 81.2192 24.8068 81.4048 24.3068C81.5904 23.8068 81.6832 23.2652 81.6832 22.6818C81.6832 22.0985 81.5904 21.5549 81.4048 21.0511C81.2192 20.5473 80.9332 20.1402 80.5469 19.8295C80.1605 19.5189 79.6681 19.3636 79.0696 19.3636C78.4711 19.3636 77.9787 19.5189 77.5923 19.8295C77.206 20.1402 76.92 20.5473 76.7344 21.0511C76.5488 21.5549 76.456 22.0985 76.456 22.6818C76.456 23.2652 76.5488 23.8068 76.7344 24.3068C76.92 24.8068 77.206 25.2102 77.5923 25.517C77.9787 25.8239 78.4711 25.9773 79.0696 25.9773ZM90.2301 27H88.7528L93.0256 15.3636H94.4801L98.7528 27H97.2756L93.7983 17.2045H93.7074L90.2301 27ZM90.7756 22.4545H96.7301V23.7045H90.7756V22.4545ZM93.1392 14.1818L94.5256 11.5455H96.0938L94.321 14.1818H93.1392ZM101.724 15.3636V27H100.384V15.3636H101.724ZM107.726 27.1818C106.908 27.1818 106.203 26.9886 105.612 26.6023C105.021 26.2159 104.567 25.6837 104.249 25.0057C103.93 24.3277 103.771 23.553 103.771 22.6818C103.771 21.7955 103.934 21.0133 104.26 20.3352C104.589 19.6534 105.048 19.1212 105.635 18.7386C106.226 18.3523 106.915 18.1591 107.703 18.1591C108.317 18.1591 108.87 18.2727 109.362 18.5C109.855 18.7273 110.258 19.0455 110.572 19.4545C110.887 19.8636 111.082 20.3409 111.158 20.8864H109.817C109.714 20.4886 109.487 20.1364 109.135 19.8295C108.786 19.5189 108.317 19.3636 107.726 19.3636C107.203 19.3636 106.745 19.5 106.351 19.7727C105.961 20.0417 105.656 20.4223 105.436 20.9148C105.22 21.4034 105.112 21.9773 105.112 22.6364C105.112 23.3106 105.218 23.8977 105.43 24.3977C105.646 24.8977 105.949 25.286 106.339 25.5625C106.733 25.839 107.196 25.9773 107.726 25.9773C108.074 25.9773 108.391 25.9167 108.675 25.7955C108.959 25.6742 109.199 25.5 109.396 25.2727C109.593 25.0455 109.733 24.7727 109.817 24.4545H111.158C111.082 24.9697 110.894 25.4337 110.595 25.8466C110.3 26.2557 109.908 26.5814 109.419 26.8239C108.934 27.0625 108.37 27.1818 107.726 27.1818ZM116.663 27.1818C115.875 27.1818 115.184 26.9943 114.589 26.6193C113.999 26.2443 113.536 25.7197 113.203 25.0455C112.874 24.3712 112.709 23.5833 112.709 22.6818C112.709 21.7727 112.874 20.9792 113.203 20.3011C113.536 19.6231 113.999 19.0966 114.589 18.7216C115.184 18.3466 115.875 18.1591 116.663 18.1591C117.451 18.1591 118.141 18.3466 118.732 18.7216C119.326 19.0966 119.788 19.6231 120.118 20.3011C120.451 20.9792 120.618 21.7727 120.618 22.6818C120.618 23.5833 120.451 24.3712 120.118 25.0455C119.788 25.7197 119.326 26.2443 118.732 26.6193C118.141 26.9943 117.451 27.1818 116.663 27.1818ZM116.663 25.9773C117.262 25.9773 117.754 25.8239 118.141 25.517C118.527 25.2102 118.813 24.8068 118.999 24.3068C119.184 23.8068 119.277 23.2652 119.277 22.6818C119.277 22.0985 119.184 21.5549 118.999 21.0511C118.813 20.5473 118.527 20.1402 118.141 19.8295C117.754 19.5189 117.262 19.3636 116.663 19.3636C116.065 19.3636 115.572 19.5189 115.186 19.8295C114.8 20.1402 114.514 20.5473 114.328 21.0511C114.143 21.5549 114.05 22.0985 114.05 22.6818C114.05 23.2652 114.143 23.8068 114.328 24.3068C114.514 24.8068 114.8 25.2102 115.186 25.517C115.572 25.8239 116.065 25.9773 116.663 25.9773ZM126.21 27.1818C125.422 27.1818 124.731 26.9943 124.136 26.6193C123.545 26.2443 123.083 25.7197 122.75 25.0455C122.42 24.3712 122.256 23.5833 122.256 22.6818C122.256 21.7727 122.42 20.9792 122.75 20.3011C123.083 19.6231 123.545 19.0966 124.136 18.7216C124.731 18.3466 125.422 18.1591 126.21 18.1591C126.998 18.1591 127.688 18.3466 128.278 18.7216C128.873 19.0966 129.335 19.6231 129.665 20.3011C129.998 20.9792 130.165 21.7727 130.165 22.6818C130.165 23.5833 129.998 24.3712 129.665 25.0455C129.335 25.7197 128.873 26.2443 128.278 26.6193C127.688 26.9943 126.998 27.1818 126.21 27.1818ZM126.21 25.9773C126.809 25.9773 127.301 25.8239 127.688 25.517C128.074 25.2102 128.36 24.8068 128.545 24.3068C128.731 23.8068 128.824 23.2652 128.824 22.6818C128.824 22.0985 128.731 21.5549 128.545 21.0511C128.36 20.5473 128.074 20.1402 127.688 19.8295C127.301 19.5189 126.809 19.3636 126.21 19.3636C125.612 19.3636 125.119 19.5189 124.733 19.8295C124.347 20.1402 124.061 20.5473 123.875 21.0511C123.689 21.5549 123.597 22.0985 123.597 22.6818C123.597 23.2652 123.689 23.8068 123.875 24.3068C124.061 24.8068 124.347 25.2102 124.733 25.517C125.119 25.8239 125.612 25.9773 126.21 25.9773ZM133.553 15.3636V27H132.212V15.3636H133.553Z" fill="#1A1A1A"/>
</g>
<defs>
<filter id="filter0_d_2_119" x="0" y="0" width="335" height="50" filterUnits="userSpaceOnUse" color-interpolation-filters="sRGB">
<feFlood flood-opacity="0" result="BackgroundImageFix"/>
<feColorMatrix in="SourceAlpha" type="matrix" values="0 0 0 0 0 0 0 0 0 0 0 0 0 0 0 0 0 0 127 0" result="hardAlpha"/>
<feOffset dy="4"/>
<feGaussianBlur stdDeviation="2"/>
<feComposite in2="hardAlpha" operator="out"/>
<feColorMatrix type="matrix" values="0 0 0 0 0 0 0 0 0 0 0 0 0 0 0 0 0 0 0.25 0"/>
<feBlend mode="normal" in2="BackgroundImageFix" result="effect1_dropShadow_2_119"/>
<feBlend mode="normal" in="SourceGraphic" in2="effect1_dropShadow_2_119" result="shape"/>
</filter>
</defs>
</svg>
