<svg width="335" height="50" viewBox="0 0 335 50" fill="none" xmlns="http://www.w3.org/2000/svg">
<g opacity="0.9" filter="url(#filter0_d_5_37)">
<rect x="4" width="327" height="42" rx="12" fill="#E6E6E6" shape-rendering="crispEdges"/>
<path opacity="0.5" d="M17.6825 27V15.3636H21.6143C22.5234 15.3636 23.2696 15.5189 23.853 15.8295C24.4363 16.1364 24.8681 16.5587 25.1484 17.0966C25.4287 17.6345 25.5689 18.2462 25.5689 18.9318C25.5689 19.6174 25.4287 20.2254 25.1484 20.7557C24.8681 21.286 24.4382 21.7027 23.8587 22.0057C23.2791 22.3049 22.5386 22.4545 21.6371 22.4545H18.4553V21.1818H21.5916C22.2128 21.1818 22.7128 21.0909 23.0916 20.9091C23.4742 20.7273 23.7507 20.4697 23.9212 20.1364C24.0954 19.7992 24.1825 19.3977 24.1825 18.9318C24.1825 18.4659 24.0954 18.0587 23.9212 17.7102C23.7469 17.3617 23.4685 17.0928 23.0859 16.9034C22.7034 16.7102 22.1977 16.6136 21.5689 16.6136H19.0916V27H17.6825ZM23.1598 21.7727L26.0234 27H24.3871L21.5689 21.7727H23.1598ZM31.1442 28.4545V13.9091H32.076V28.4545H31.1442ZM34.2805 18.2727C34.2124 17.697 33.9358 17.25 33.451 16.9318C32.9661 16.6136 32.3714 16.4545 31.6669 16.4545C31.1518 16.4545 30.701 16.5379 30.3146 16.7045C29.9321 16.8712 29.6328 17.1004 29.4169 17.392C29.2048 17.6837 29.0987 18.0152 29.0987 18.3864C29.0987 18.697 29.1726 18.964 29.3203 19.1875C29.4718 19.4072 29.665 19.5909 29.8999 19.7386C30.1347 19.8826 30.3809 20.0019 30.6385 20.0966C30.8961 20.1875 31.1328 20.2614 31.3487 20.3182L32.5305 20.6364C32.8336 20.7159 33.1707 20.8258 33.5419 20.9659C33.9169 21.1061 34.2749 21.2973 34.6158 21.5398C34.9605 21.7784 35.2446 22.0852 35.468 22.4602C35.6915 22.8352 35.8033 23.2955 35.8033 23.8409C35.8033 24.4697 35.6385 25.0379 35.3089 25.5455C34.9832 26.053 34.5059 26.4564 33.8771 26.7557C33.2521 27.0549 32.4927 27.2045 31.5987 27.2045C30.7654 27.2045 30.0438 27.0701 29.4339 26.8011C28.8279 26.5322 28.3506 26.1572 28.0021 25.6761C27.6574 25.1951 27.4624 24.6364 27.4169 24H28.8714C28.9093 24.4394 29.0571 24.803 29.3146 25.0909C29.576 25.375 29.9055 25.5871 30.3033 25.7273C30.7048 25.8636 31.1366 25.9318 31.5987 25.9318C32.1366 25.9318 32.6196 25.8447 33.0476 25.6705C33.4756 25.4924 33.8146 25.2462 34.0646 24.9318C34.3146 24.6136 34.4396 24.2424 34.4396 23.8182C34.4396 23.4318 34.3317 23.1174 34.1158 22.875C33.8999 22.6326 33.6158 22.4356 33.2635 22.2841C32.9112 22.1326 32.5305 22 32.1214 21.8864L30.6896 21.4773C29.7805 21.2159 29.0608 20.8428 28.5305 20.358C28.0002 19.8731 27.7351 19.2386 27.7351 18.4545C27.7351 17.803 27.9112 17.2348 28.2635 16.75C28.6196 16.2614 29.0968 15.8826 29.6953 15.6136C30.2976 15.3409 30.9699 15.2045 31.7124 15.2045C32.4624 15.2045 33.129 15.339 33.7124 15.608C34.2957 15.8731 34.7578 16.2367 35.0987 16.6989C35.4434 17.161 35.6252 17.6856 35.6442 18.2727H34.2805ZM46.2791 27.1591C45.8018 27.1515 45.3246 27.0606 44.8473 26.8864C44.37 26.7121 43.9344 26.4186 43.5405 26.0057C43.1465 25.589 42.8303 25.0265 42.5916 24.3182C42.353 23.6061 42.2337 22.7121 42.2337 21.6364C42.2337 20.6061 42.3303 19.6932 42.5234 18.8977C42.7166 18.0985 42.9969 17.4261 43.3643 16.8807C43.7318 16.3314 44.175 15.9148 44.6939 15.6307C45.2166 15.3466 45.8056 15.2045 46.4609 15.2045C47.1125 15.2045 47.692 15.3352 48.1996 15.5966C48.7109 15.8542 49.1276 16.214 49.4496 16.6761C49.7715 17.1383 49.9799 17.6705 50.0746 18.2727H48.6882C48.5594 17.75 48.3094 17.3163 47.9382 16.9716C47.567 16.6269 47.0746 16.4545 46.4609 16.4545C45.5594 16.4545 44.8492 16.8466 44.3303 17.6307C43.8151 18.4148 43.5556 19.5152 43.5518 20.9318H43.6428C43.8549 20.6098 44.1068 20.3352 44.3984 20.108C44.6939 19.8769 45.0196 19.6989 45.3757 19.5739C45.7318 19.4489 46.1087 19.3864 46.5064 19.3864C47.1731 19.3864 47.7829 19.553 48.3359 19.8864C48.889 20.2159 49.3321 20.6723 49.6655 21.2557C49.9988 21.8352 50.1655 22.5 50.1655 23.25C50.1655 23.9697 50.0045 24.6288 49.6825 25.2273C49.3606 25.822 48.9079 26.2955 48.3246 26.6477C47.745 26.9962 47.0632 27.1667 46.2791 27.1591ZM46.2791 25.9091C46.7564 25.9091 47.1844 25.7898 47.5632 25.5511C47.9458 25.3125 48.2469 24.9924 48.4666 24.5909C48.6901 24.1894 48.8018 23.7424 48.8018 23.25C48.8018 22.7689 48.6939 22.3314 48.478 21.9375C48.2659 21.5398 47.9723 21.2235 47.5973 20.9886C47.2261 20.7538 46.8018 20.6364 46.3246 20.6364C45.9647 20.6364 45.6295 20.7083 45.3189 20.8523C45.0083 20.9924 44.7356 21.1856 44.5007 21.4318C44.2696 21.678 44.0878 21.9602 43.9553 22.2784C43.8227 22.5928 43.7564 22.9242 43.7564 23.2727C43.7564 23.7348 43.8643 24.1667 44.0803 24.5682C44.3 24.9697 44.5992 25.2936 44.978 25.5398C45.3606 25.786 45.7943 25.9091 46.2791 25.9091ZM53.8757 25.4091L53.7848 26.0227C53.7204 26.4545 53.6219 26.9167 53.4893 27.4091C53.3606 27.9015 53.2261 28.3655 53.0859 28.8011C52.9458 29.2367 52.8303 29.5833 52.7393 29.8409H51.7166C51.7659 29.5985 51.8303 29.2784 51.9098 28.8807C51.9893 28.483 52.0689 28.0379 52.1484 27.5455C52.2318 27.0568 52.3 26.5568 52.353 26.0455L52.4212 25.4091H53.8757ZM59.7266 27.1591C58.8705 27.1591 58.1413 26.9261 57.5391 26.4602C56.9368 25.9905 56.4766 25.3106 56.1584 24.4205C55.8402 23.5265 55.6811 22.447 55.6811 21.1818C55.6811 19.9242 55.8402 18.8504 56.1584 17.9602C56.4804 17.0663 56.9425 16.3845 57.5447 15.9148C58.1508 15.4413 58.8781 15.2045 59.7266 15.2045C60.575 15.2045 61.3004 15.4413 61.9027 15.9148C62.5088 16.3845 62.9709 17.0663 63.2891 17.9602C63.611 18.8504 63.772 19.9242 63.772 21.1818C63.772 22.447 63.6129 23.5265 63.2947 24.4205C62.9766 25.3106 62.5163 25.9905 61.9141 26.4602C61.3118 26.9261 60.5826 27.1591 59.7266 27.1591ZM59.7266 25.9091C60.575 25.9091 61.2341 25.5 61.7038 24.6818C62.1735 23.8636 62.4084 22.697 62.4084 21.1818C62.4084 20.1742 62.3004 19.3163 62.0845 18.608C61.8724 17.8996 61.5656 17.3598 61.1641 16.9886C60.7663 16.6174 60.2872 16.4318 59.7266 16.4318C58.8857 16.4318 58.2285 16.8466 57.755 17.6761C57.2815 18.5019 57.0447 19.6705 57.0447 21.1818C57.0447 22.1894 57.1508 23.0455 57.3629 23.75C57.575 24.4545 57.88 24.9905 58.2777 25.358C58.6792 25.7254 59.1622 25.9091 59.7266 25.9091ZM69.7266 27.1591C68.8705 27.1591 68.1413 26.9261 67.5391 26.4602C66.9368 25.9905 66.4766 25.3106 66.1584 24.4205C65.8402 23.5265 65.6811 22.447 65.6811 21.1818C65.6811 19.9242 65.8402 18.8504 66.1584 17.9602C66.4804 17.0663 66.9425 16.3845 67.5447 15.9148C68.1508 15.4413 68.8781 15.2045 69.7266 15.2045C70.575 15.2045 71.3004 15.4413 71.9027 15.9148C72.5088 16.3845 72.9709 17.0663 73.2891 17.9602C73.611 18.8504 73.772 19.9242 73.772 21.1818C73.772 22.447 73.6129 23.5265 73.2947 24.4205C72.9766 25.3106 72.5163 25.9905 71.9141 26.4602C71.3118 26.9261 70.5826 27.1591 69.7266 27.1591ZM69.7266 25.9091C70.575 25.9091 71.2341 25.5 71.7038 24.6818C72.1735 23.8636 72.4084 22.697 72.4084 21.1818C72.4084 20.1742 72.3004 19.3163 72.0845 18.608C71.8724 17.8996 71.5656 17.3598 71.1641 16.9886C70.7663 16.6174 70.2872 16.4318 69.7266 16.4318C68.8857 16.4318 68.2285 16.8466 67.755 17.6761C67.2815 18.5019 67.0447 19.6705 67.0447 21.1818C67.0447 22.1894 67.1508 23.0455 67.3629 23.75C67.575 24.4545 67.88 24.9905 68.2777 25.358C68.6792 25.7254 69.1622 25.9091 69.7266 25.9091Z" fill="#1A1A1A"/>
</g>
<defs>
<filter id="filter0_d_5_37" x="0" y="0" width="335" height="50" filterUnits="userSpaceOnUse" color-interpolation-filters="sRGB">
<feFlood flood-opacity="0" result="BackgroundImageFix"/>
<feColorMatrix in="SourceAlpha" type="matrix" values="0 0 0 0 0 0 0 0 0 0 0 0 0 0 0 0 0 0 127 0" result="hardAlpha"/>
<feOffset dy="4"/>
<feGaussianBlur stdDeviation="2"/>
<feComposite in2="hardAlpha" operator="out"/>
<feColorMatrix type="matrix" values="0 0 0 0 0 0 0 0 0 0 0 0 0 0 0 0 0 0 0.25 0"/>
<feBlend mode="normal" in2="BackgroundImageFix" result="effect1_dropShadow_5_37"/>
<feBlend mode="normal" in="SourceGraphic" in2="effect1_dropShadow_5_37" result="shape"/>
</filter>
</defs>
</svg>
