<svg width="327" height="42" viewBox="0 0 327 42" fill="none" xmlns="http://www.w3.org/2000/svg">
<g opacity="0.9">
<rect width="327" height="42" rx="12" fill="#E6E6E6"/>
<path opacity="0.5" d="M13.7528 27V15.3636H17.6847C18.5938 15.3636 19.34 15.5189 19.9233 15.8295C20.5066 16.1364 20.9384 16.5587 21.2188 17.0966C21.4991 17.6345 21.6392 18.2462 21.6392 18.9318C21.6392 19.6174 21.4991 20.2254 21.2188 20.7557C20.9384 21.286 20.5085 21.7027 19.929 22.0057C19.3494 22.3049 18.6089 22.4545 17.7074 22.4545H14.5256V21.1818H17.6619C18.2831 21.1818 18.7831 21.0909 19.1619 20.9091C19.5445 20.7273 19.821 20.4697 19.9915 20.1364C20.1657 19.7992 20.2528 19.3977 20.2528 18.9318C20.2528 18.4659 20.1657 18.0587 19.9915 17.7102C19.8172 17.3617 19.5388 17.0928 19.1562 16.9034C18.7737 16.7102 18.268 16.6136 17.6392 16.6136H15.1619V27H13.7528ZM19.2301 21.7727L22.0938 27H20.4574L17.6392 21.7727H19.2301ZM27.2145 28.4545V13.9091H28.1463V28.4545H27.2145ZM30.3509 18.2727C30.2827 17.697 30.0062 17.25 29.5213 16.9318C29.0365 16.6136 28.4418 16.4545 27.7372 16.4545C27.2221 16.4545 26.7713 16.5379 26.3849 16.7045C26.0024 16.8712 25.7031 17.1004 25.4872 17.392C25.2751 17.6837 25.169 18.0152 25.169 18.3864C25.169 18.697 25.2429 18.964 25.3906 19.1875C25.5421 19.4072 25.7353 19.5909 25.9702 19.7386C26.205 19.8826 26.4512 20.0019 26.7088 20.0966C26.9664 20.1875 27.2031 20.2614 27.419 20.3182L28.6009 20.6364C28.9039 20.7159 29.241 20.8258 29.6122 20.9659C29.9872 21.1061 30.3452 21.2973 30.6861 21.5398C31.0308 21.7784 31.3149 22.0852 31.5384 22.4602C31.7618 22.8352 31.8736 23.2955 31.8736 23.8409C31.8736 24.4697 31.7088 25.0379 31.3793 25.5455C31.0535 26.053 30.5762 26.4564 29.9474 26.7557C29.3224 27.0549 28.563 27.2045 27.669 27.2045C26.8357 27.2045 26.1141 27.0701 25.5043 26.8011C24.8982 26.5322 24.4209 26.1572 24.0724 25.6761C23.7277 25.1951 23.5327 24.6364 23.4872 24H24.9418C24.9796 24.4394 25.1274 24.803 25.3849 25.0909C25.6463 25.375 25.9759 25.5871 26.3736 25.7273C26.7751 25.8636 27.2069 25.9318 27.669 25.9318C28.2069 25.9318 28.6899 25.8447 29.1179 25.6705C29.5459 25.4924 29.8849 25.2462 30.1349 24.9318C30.3849 24.6136 30.5099 24.2424 30.5099 23.8182C30.5099 23.4318 30.402 23.1174 30.1861 22.875C29.9702 22.6326 29.6861 22.4356 29.3338 22.2841C28.9815 22.1326 28.6009 22 28.1918 21.8864L26.7599 21.4773C25.8509 21.2159 25.1312 20.8428 24.6009 20.358C24.0705 19.8731 23.8054 19.2386 23.8054 18.4545C23.8054 17.803 23.9815 17.2348 24.3338 16.75C24.6899 16.2614 25.1671 15.8826 25.7656 15.6136C26.3679 15.3409 27.0402 15.2045 27.7827 15.2045C28.5327 15.2045 29.1993 15.339 29.7827 15.608C30.366 15.8731 30.8281 16.2367 31.169 16.6989C31.5137 17.161 31.6955 17.6856 31.7145 18.2727H30.3509ZM42.1222 27.1591C41.4555 27.1591 40.8551 27.0265 40.321 26.7614C39.7869 26.4962 39.3589 26.1326 39.0369 25.6705C38.715 25.2083 38.5388 24.6818 38.5085 24.0909H39.8722C39.9252 24.6174 40.1638 25.053 40.5881 25.3977C41.0161 25.7386 41.5275 25.9091 42.1222 25.9091C42.5994 25.9091 43.0237 25.7973 43.3949 25.5739C43.7699 25.3504 44.0634 25.0436 44.2756 24.6534C44.4915 24.2595 44.5994 23.8144 44.5994 23.3182C44.5994 22.8106 44.4877 22.358 44.2642 21.9602C44.0445 21.5587 43.7415 21.2424 43.3551 21.0114C42.9688 20.7803 42.5275 20.6629 42.0312 20.6591C41.6752 20.6553 41.3097 20.7102 40.9347 20.8239C40.5597 20.9337 40.2509 21.0758 40.0085 21.25L38.6903 21.0909L39.3949 15.3636H45.4403V16.6136H40.5767L40.1676 20.0455H40.2358C40.4744 19.8561 40.7737 19.6989 41.1335 19.5739C41.4934 19.4489 41.8684 19.3864 42.2585 19.3864C42.9706 19.3864 43.6051 19.5568 44.1619 19.8977C44.7225 20.2348 45.1619 20.697 45.4801 21.2841C45.8021 21.8712 45.9631 22.5417 45.9631 23.2955C45.9631 24.0379 45.7964 24.7008 45.4631 25.2841C45.1335 25.8636 44.679 26.322 44.0994 26.6591C43.5199 26.9924 42.8608 27.1591 42.1222 27.1591ZM49.8054 25.4091L49.7145 26.0227C49.6501 26.4545 49.5516 26.9167 49.419 27.4091C49.2902 27.9015 49.1558 28.3655 49.0156 28.8011C48.8755 29.2367 48.7599 29.5833 48.669 29.8409H47.6463C47.6955 29.5985 47.7599 29.2784 47.8395 28.8807C47.919 28.483 47.9986 28.0379 48.0781 27.5455C48.1615 27.0568 48.2296 26.5568 48.2827 26.0455L48.3509 25.4091H49.8054ZM55.6562 27.1591C54.8002 27.1591 54.071 26.9261 53.4688 26.4602C52.8665 25.9905 52.4063 25.3106 52.0881 24.4205C51.7699 23.5265 51.6108 22.447 51.6108 21.1818C51.6108 19.9242 51.7699 18.8504 52.0881 17.9602C52.41 17.0663 52.8722 16.3845 53.4744 15.9148C54.0805 15.4413 54.8078 15.2045 55.6562 15.2045C56.5047 15.2045 57.2301 15.4413 57.8324 15.9148C58.4384 16.3845 58.9006 17.0663 59.2188 17.9602C59.5407 18.8504 59.7017 19.9242 59.7017 21.1818C59.7017 22.447 59.5426 23.5265 59.2244 24.4205C58.9062 25.3106 58.446 25.9905 57.8438 26.4602C57.2415 26.9261 56.5123 27.1591 55.6562 27.1591ZM55.6562 25.9091C56.5047 25.9091 57.1638 25.5 57.6335 24.6818C58.1032 23.8636 58.3381 22.697 58.3381 21.1818C58.3381 20.1742 58.2301 19.3163 58.0142 18.608C57.8021 17.8996 57.4953 17.3598 57.0938 16.9886C56.696 16.6174 56.2169 16.4318 55.6562 16.4318C54.8153 16.4318 54.1581 16.8466 53.6847 17.6761C53.2112 18.5019 52.9744 19.6705 52.9744 21.1818C52.9744 22.1894 53.0805 23.0455 53.2926 23.75C53.5047 24.4545 53.8097 24.9905 54.2074 25.358C54.6089 25.7254 55.0919 25.9091 55.6562 25.9091ZM65.6562 27.1591C64.8002 27.1591 64.071 26.9261 63.4688 26.4602C62.8665 25.9905 62.4063 25.3106 62.0881 24.4205C61.7699 23.5265 61.6108 22.447 61.6108 21.1818C61.6108 19.9242 61.7699 18.8504 62.0881 17.9602C62.41 17.0663 62.8722 16.3845 63.4744 15.9148C64.0805 15.4413 64.8078 15.2045 65.6562 15.2045C66.5047 15.2045 67.2301 15.4413 67.8324 15.9148C68.4384 16.3845 68.9006 17.0663 69.2188 17.9602C69.5407 18.8504 69.7017 19.9242 69.7017 21.1818C69.7017 22.447 69.5426 23.5265 69.2244 24.4205C68.9062 25.3106 68.446 25.9905 67.8438 26.4602C67.2415 26.9261 66.5123 27.1591 65.6562 27.1591ZM65.6562 25.9091C66.5047 25.9091 67.1638 25.5 67.6335 24.6818C68.1032 23.8636 68.3381 22.697 68.3381 21.1818C68.3381 20.1742 68.2301 19.3163 68.0142 18.608C67.8021 17.8996 67.4953 17.3598 67.0938 16.9886C66.696 16.6174 66.2169 16.4318 65.6562 16.4318C64.8153 16.4318 64.1581 16.8466 63.6847 17.6761C63.2112 18.5019 62.9744 19.6705 62.9744 21.1818C62.9744 22.1894 63.0805 23.0455 63.2926 23.75C63.5047 24.4545 63.8097 24.9905 64.2074 25.358C64.6089 25.7254 65.0919 25.9091 65.6562 25.9091Z" fill="#1A1A1A"/>
</g>
</svg>
