<svg width="256" height="44" viewBox="0 0 256 44" fill="none" xmlns="http://www.w3.org/2000/svg">
<rect width="256" height="44" rx="7.94135" fill="#E6007F"/>
<path d="M106.866 20.9313H104.705C104.665 20.6517 104.585 20.4033 104.463 20.1861C104.341 19.9657 104.185 19.7781 103.994 19.6235C103.803 19.4689 103.583 19.3504 103.333 19.2682C103.086 19.1859 102.818 19.1448 102.528 19.1448C102.005 19.1448 101.55 19.2748 101.161 19.5347C100.773 19.7913 100.472 20.1664 100.258 20.6599C100.044 21.1501 99.9375 21.7456 99.9375 22.4464C99.9375 23.1669 100.044 23.7723 100.258 24.2625C100.475 24.7528 100.778 25.1229 101.166 25.373C101.555 25.623 102.004 25.748 102.514 25.748C102.8 25.748 103.065 25.7102 103.308 25.6345C103.555 25.5588 103.774 25.4486 103.965 25.3039C104.155 25.1558 104.313 24.9765 104.438 24.7659C104.567 24.5554 104.656 24.3152 104.705 24.0454L106.866 24.0553C106.811 24.5192 106.671 24.9666 106.447 25.3976C106.227 25.8253 105.929 26.2086 105.554 26.5475C105.182 26.8831 104.738 27.1496 104.221 27.347C103.708 27.5411 103.127 27.6382 102.479 27.6382C101.578 27.6382 100.772 27.4342 100.061 27.0262C99.3536 26.6183 98.7942 26.0277 98.383 25.2545C97.975 24.4813 97.771 23.5453 97.771 22.4464C97.771 21.3442 97.9783 20.4066 98.3928 19.6334C98.8074 18.8602 99.37 18.2713 100.081 17.8666C100.791 17.4586 101.591 17.2546 102.479 17.2546C103.065 17.2546 103.608 17.3369 104.108 17.5014C104.611 17.6659 105.057 17.9061 105.445 18.2219C105.833 18.5345 106.149 18.9178 106.393 19.3718C106.639 19.8259 106.797 20.3457 106.866 20.9313ZM111.784 27.6481C111.018 27.6481 110.355 27.4852 109.795 27.1595C109.239 26.8305 108.81 26.3731 108.507 25.7875C108.205 25.1986 108.053 24.5159 108.053 23.7394C108.053 22.9564 108.205 22.272 108.507 21.6864C108.81 21.0975 109.239 20.6402 109.795 20.3144C110.355 19.9854 111.018 19.8209 111.784 19.8209C112.551 19.8209 113.212 19.9854 113.768 20.3144C114.328 20.6402 114.759 21.0975 115.061 21.6864C115.364 22.272 115.515 22.9564 115.515 23.7394C115.515 24.5159 115.364 25.1986 115.061 25.7875C114.759 26.3731 114.328 26.8305 113.768 27.1595C113.212 27.4852 112.551 27.6481 111.784 27.6481ZM111.794 26.0195C112.143 26.0195 112.434 25.9208 112.668 25.7233C112.901 25.5227 113.077 25.2496 113.196 24.9041C113.318 24.5587 113.378 24.1655 113.378 23.7246C113.378 23.2837 113.318 22.8906 113.196 22.5451C113.077 22.1997 112.901 21.9266 112.668 21.7259C112.434 21.5252 112.143 21.4248 111.794 21.4248C111.442 21.4248 111.146 21.5252 110.906 21.7259C110.669 21.9266 110.49 22.1997 110.368 22.5451C110.25 22.8906 110.19 23.2837 110.19 23.7246C110.19 24.1655 110.25 24.5587 110.368 24.9041C110.49 25.2496 110.669 25.5227 110.906 25.7233C111.146 25.9208 111.442 26.0195 111.794 26.0195ZM116.882 27.5V19.9196H118.886V21.257H118.975C119.133 20.8129 119.396 20.4625 119.764 20.2059C120.133 19.9492 120.574 19.8209 121.087 19.8209C121.607 19.8209 122.049 19.9509 122.415 20.2108C122.78 20.4674 123.023 20.8162 123.145 21.257H123.224C123.379 20.8228 123.658 20.4756 124.063 20.2157C124.471 19.9525 124.953 19.8209 125.509 19.8209C126.216 19.8209 126.79 20.0463 127.231 20.497C127.676 20.9445 127.898 21.5795 127.898 22.402V27.5H125.8V22.8165C125.8 22.3954 125.688 22.0796 125.465 21.869C125.241 21.6584 124.961 21.5532 124.626 21.5532C124.244 21.5532 123.946 21.6749 123.732 21.9184C123.518 22.1585 123.412 22.476 123.412 22.8708V27.5H121.373V22.7721C121.373 22.4004 121.266 22.1042 121.053 21.8838C120.842 21.6634 120.564 21.5532 120.219 21.5532C119.985 21.5532 119.774 21.6124 119.587 21.7308C119.403 21.846 119.256 22.0088 119.148 22.2194C119.039 22.4267 118.985 22.6701 118.985 22.9498V27.5H116.882ZM133.013 27.6481C132.233 27.6481 131.562 27.4901 130.999 27.1743C130.44 26.8551 130.009 26.4044 129.706 25.8221C129.404 25.2364 129.252 24.5438 129.252 23.7444C129.252 22.9646 129.404 22.2803 129.706 21.6913C130.009 21.1024 130.435 20.6434 130.985 20.3144C131.537 19.9854 132.185 19.8209 132.929 19.8209C133.429 19.8209 133.895 19.9015 134.326 20.0627C134.76 20.2207 135.138 20.4592 135.461 20.7783C135.786 21.0975 136.04 21.4989 136.221 21.9825C136.402 22.4629 136.492 23.0255 136.492 23.6703V24.2477H130.091V22.9449H134.513C134.513 22.6422 134.447 22.374 134.316 22.1404C134.184 21.9068 134.002 21.7242 133.768 21.5926C133.538 21.4577 133.269 21.3903 132.964 21.3903C132.644 21.3903 132.361 21.4643 132.115 21.6124C131.871 21.7571 131.68 21.9529 131.542 22.1997C131.404 22.4431 131.333 22.7146 131.33 23.014V24.2527C131.33 24.6277 131.399 24.9518 131.537 25.2249C131.679 25.498 131.878 25.7085 132.134 25.8566C132.391 26.0047 132.695 26.0787 133.047 26.0787C133.281 26.0787 133.495 26.0458 133.689 25.98C133.883 25.9142 134.049 25.8155 134.187 25.6839C134.326 25.5523 134.431 25.391 134.503 25.2002L136.448 25.3285C136.349 25.7957 136.147 26.2037 135.841 26.5525C135.538 26.8979 135.146 27.1677 134.666 27.3618C134.189 27.5526 133.638 27.6481 133.013 27.6481ZM141.289 27.6481C140.513 27.6481 139.845 27.4835 139.285 27.1545C138.729 26.8222 138.302 26.3616 138.002 25.7727C137.706 25.1838 137.558 24.506 137.558 23.7394C137.558 22.963 137.708 22.2819 138.007 21.6963C138.31 21.1073 138.739 20.6484 139.295 20.3194C139.851 19.9871 140.513 19.8209 141.279 19.8209C141.941 19.8209 142.52 19.941 143.016 20.1812C143.513 20.4214 143.906 20.7586 144.196 21.1929C144.485 21.6272 144.645 22.1371 144.675 22.7228H142.691C142.635 22.3444 142.487 22.0401 142.247 21.8098C142.01 21.5762 141.699 21.4594 141.314 21.4594C140.988 21.4594 140.703 21.5482 140.46 21.7259C140.22 21.9003 140.032 22.1552 139.897 22.4908C139.762 22.8264 139.695 23.2327 139.695 23.7098C139.695 24.1935 139.761 24.6047 139.892 24.9436C140.027 25.2825 140.217 25.5407 140.46 25.7184C140.703 25.8961 140.988 25.9849 141.314 25.9849C141.554 25.9849 141.769 25.9356 141.96 25.8369C142.154 25.7382 142.314 25.595 142.439 25.4075C142.567 25.2167 142.651 24.988 142.691 24.7215H144.675C144.642 25.3006 144.484 25.8105 144.201 26.2514C143.921 26.689 143.535 27.0312 143.041 27.2779C142.548 27.5247 141.964 27.6481 141.289 27.6481ZM140.796 27.4605H141.763L141.684 27.8899C142.023 27.9425 142.299 28.0692 142.513 28.2699C142.73 28.4706 142.84 28.7437 142.844 29.0891C142.847 29.5793 142.62 29.9692 142.163 30.2587C141.705 30.5516 141.064 30.698 140.238 30.698L140.218 29.7603C140.633 29.7603 140.957 29.7093 141.19 29.6073C141.427 29.5086 141.551 29.354 141.561 29.1434C141.567 28.9427 141.49 28.7897 141.329 28.6844C141.167 28.5792 140.916 28.5051 140.574 28.4624L140.796 27.4605ZM148.182 27.6431C147.699 27.6431 147.268 27.5592 146.889 27.3914C146.511 27.2203 146.211 26.9686 145.991 26.6364C145.774 26.3008 145.665 25.8829 145.665 25.3828C145.665 24.9617 145.743 24.608 145.897 24.3218C146.052 24.0355 146.262 23.8052 146.529 23.6308C146.795 23.4565 147.098 23.3249 147.437 23.236C147.779 23.1472 148.138 23.0847 148.513 23.0485C148.954 23.0024 149.309 22.9597 149.579 22.9202C149.849 22.8774 150.044 22.8149 150.166 22.7327C150.288 22.6504 150.349 22.5287 150.349 22.3675V22.3378C150.349 22.0253 150.25 21.7835 150.053 21.6124C149.859 21.4413 149.582 21.3557 149.224 21.3557C148.845 21.3557 148.544 21.4396 148.32 21.6074C148.097 21.7719 147.949 21.9792 147.876 22.2293L145.932 22.0713C146.031 21.6107 146.225 21.2126 146.514 20.877C146.804 20.5382 147.177 20.2782 147.634 20.0973C148.095 19.913 148.628 19.8209 149.233 19.8209C149.655 19.8209 150.058 19.8703 150.443 19.969C150.831 20.0677 151.175 20.2207 151.474 20.4279C151.777 20.6352 152.015 20.9017 152.19 21.2274C152.364 21.5499 152.451 21.9364 152.451 22.3872V27.5H150.457V26.4488H150.398C150.276 26.6857 150.114 26.8946 149.91 27.0756C149.706 27.2532 149.46 27.3931 149.174 27.4951C148.888 27.5938 148.557 27.6431 148.182 27.6431ZM148.784 26.1922C149.094 26.1922 149.367 26.1313 149.604 26.0096C149.84 25.8846 150.026 25.7168 150.161 25.5062C150.296 25.2956 150.364 25.0571 150.364 24.7906V23.9862C150.298 24.0289 150.207 24.0684 150.092 24.1046C149.98 24.1375 149.854 24.1688 149.712 24.1984C149.571 24.2247 149.429 24.2494 149.288 24.2724C149.146 24.2922 149.018 24.3103 148.903 24.3267C148.656 24.3629 148.441 24.4205 148.256 24.4994C148.072 24.5784 147.929 24.6853 147.827 24.8202C147.725 24.9518 147.674 25.1163 147.674 25.3137C147.674 25.6 147.778 25.8188 147.985 25.9701C148.195 26.1182 148.462 26.1922 148.784 26.1922ZM154.082 27.5V19.9196H156.12V21.2422H156.199C156.338 20.7718 156.57 20.4164 156.895 20.1762C157.221 19.9328 157.596 19.811 158.02 19.811C158.126 19.811 158.239 19.8176 158.361 19.8308C158.483 19.8439 158.59 19.862 158.682 19.8851V21.7506C158.583 21.7209 158.447 21.6946 158.272 21.6716C158.098 21.6486 157.938 21.6371 157.793 21.6371C157.484 21.6371 157.208 21.7045 156.964 21.8394C156.724 21.971 156.533 22.1552 156.392 22.3921C156.254 22.629 156.185 22.9021 156.185 23.2114V27.5H154.082Z" fill="white"/>
</svg>
